<svg width="24" height="24" viewBox="0 0 24 24" fill="none" xmlns="http://www.w3.org/2000/svg" aria-hidden="true">
  <path d="M11.7072 6.70711C12.0977 6.31658 12.0977 5.68342 11.7072 5.29289C11.3166 4.90237 10.6835 4.90237 10.2929 5.29289L4.84227 10.7436C4.75801 10.8278 4.65737 10.9283 4.576 11.0242C4.4817 11.1352 4.35616 11.3038 4.28057 11.5365C4.18268 11.8377 4.18268 12.1623 4.28057 12.4635C4.35616 12.6962 4.4817 12.8648 4.576 12.9758C4.65737 13.0717 4.75801 13.1722 4.84227 13.2564L10.2929 18.7071C10.6835 19.0976 11.3166 19.0976 11.7072 18.7071C12.0977 18.3166 12.0977 17.6834 11.7072 17.2929L7.41426 13L19 13C19.5523 13 20 12.5523 20 12C20 11.4477 19.5523 11 19 11L7.41426 11L11.7072 6.70711Z" fill="currentColor"></path>
</svg>
